<?xml version="1.0" encoding="UTF-8" standalone="no"?>
<svg
   xmlns:dc="http://purl.org/dc/elements/1.1/"
   xmlns:cc="http://creativecommons.org/ns#"
   xmlns:rdf="http://www.w3.org/1999/02/22-rdf-syntax-ns#"
   xmlns:svg="http://www.w3.org/2000/svg"
   xmlns="http://www.w3.org/2000/svg"
   xmlns:sodipodi="http://sodipodi.sourceforge.net/DTD/sodipodi-0.dtd"
   xmlns:inkscape="http://www.inkscape.org/namespaces/inkscape"
   width="60.233498mm"
   height="47.091915mm"
   viewBox="0 0 60.233497 47.091915"
   version="1.1"
   id="svg8"
   inkscape:version="1.0.2 (e86c870879, 2021-01-15, custom)"
   sodipodi:docname="LUKASmemem.svg">
  <defs
     id="defs2" />
  <sodipodi:namedview
     id="base"
     pagecolor="#ffffff"
     bordercolor="#666666"
     borderopacity="1.0"
     inkscape:pageopacity="0.0"
     inkscape:pageshadow="2"
     inkscape:zoom="0.98994949"
     inkscape:cx="321.89076"
     inkscape:cy="18.393196"
     inkscape:document-units="mm"
     inkscape:current-layer="layer1"
     inkscape:document-rotation="0"
     showgrid="false"
     fit-margin-top="0"
     fit-margin-left="0"
     fit-margin-right="0"
     fit-margin-bottom="0"
     inkscape:window-width="1267"
     inkscape:window-height="1040"
     inkscape:window-x="570"
     inkscape:window-y="23"
     inkscape:window-maximized="0" />
  <metadata
     id="metadata5">
    <rdf:RDF>
      <cc:Work
         rdf:about="">
        <dc:format>image/svg+xml</dc:format>
        <dc:type
           rdf:resource="http://purl.org/dc/dcmitype/StillImage" />
        <dc:title></dc:title>
      </cc:Work>
    </rdf:RDF>
  </metadata>
  <g
     inkscape:label="Layer 1"
     inkscape:groupmode="layer"
     id="layer1"
     transform="translate(-75.756943,-128.55823)">
    <path
       style="fill:#f5f5f5;fill-opacity:1;stroke-width:0.0846667"
       d="m 88.34689,173.86686 -0.31481,-0.0336 0.28677,-0.25179 c 0.77676,-0.68201 1.67585,-2.18361 2.09921,-3.50598 l 0.18975,-0.59266 0.0241,-17.14501 c 0.0218,-15.46746 0.0109,-17.21114 -0.11182,-17.821 -0.28867,-1.43515 -0.97306,-2.74122 -1.97069,-3.76076 l -0.51197,-0.52323 20.75911,0.0289 c 19.64028,0.0274 20.78632,0.0371 21.26406,0.1802 2.1071,0.63128 3.47325,1.88044 4.03836,3.69254 l 0.19802,0.635 v 17.06033 c 0,19.03817 0.0502,17.42392 -0.58314,18.75367 -0.61157,1.28404 -1.36511,2.03216 -2.68431,2.66498 -1.45751,0.69917 0.8116,0.63286 -22.00555,0.64302 -11.19929,0.005 -20.504,-0.006 -20.67714,-0.0246 z m 42.69637,-4.47584 c 0.0808,-0.0973 0.0869,-0.17279 0.0223,-0.27516 -0.0823,-0.13043 -1.01017,-0.14269 -12.29292,-0.16253 -6.71217,-0.0118 -12.20394,-0.0529 -12.20394,-0.0913 0,-0.0384 0.15222,-0.79078 0.33826,-1.67189 0.18605,-0.8811 0.33845,-1.63045 0.33867,-1.66522 2.5e-4,-0.0348 5.33978,-0.0729 11.86568,-0.0847 11.19476,-0.0203 11.87055,-0.0298 11.95873,-0.16963 0.0682,-0.10807 0.0682,-0.18826 0,-0.29633 -0.0882,-0.13979 -0.75994,-0.14939 -11.87407,-0.16963 -6.47933,-0.0118 -11.7806,-0.0332 -11.7806,-0.0475 0,-0.0143 0.1905,-0.93201 0.42333,-2.03928 0.23283,-1.10726 0.42333,-2.02885 0.42333,-2.04797 0,-0.0191 5.09778,-0.0348 11.3284,-0.0348 8.69809,0 11.35199,-0.0236 11.43,-0.1016 0.13799,-0.13799 0.12764,-0.2836 -0.0315,-0.44269 -0.11961,-0.11961 -1.26607,-0.13304 -11.35451,-0.13304 h -11.22146 l 0.0475,-0.1905 c 0.0261,-0.10478 0.0726,-0.34891 0.10342,-0.54251 l 0.0559,-0.35201 3.48293,-0.0392 c 3.77516,-0.0424 4.34531,-0.0938 6.29568,-0.56752 1.27347,-0.30928 2.35581,-0.72111 3.41025,-1.29757 l 0.80433,-0.43974 4.18182,-0.0423 c 3.86359,-0.0391 4.18892,-0.0536 4.27523,-0.1905 0.0681,-0.10803 0.0681,-0.1883 -2e-5,-0.29633 -0.0863,-0.13679 -0.37301,-0.14986 -3.73519,-0.17023 l -3.64174,-0.0221 0.81661,-0.82461 c 0.86693,-0.87542 1.64177,-1.95837 2.11944,-2.96219 l 0.29081,-0.61115 2.02835,-0.0226 c 1.82492,-0.0204 2.03772,-0.0375 2.12175,-0.1708 0.0681,-0.10801 0.0681,-0.18832 1e-5,-0.29633 -0.0836,-0.13266 -0.28966,-0.15055 -1.96806,-0.17096 -1.03107,-0.0125 -1.87468,-0.0532 -1.87468,-0.0905 0,-0.0372 0.0548,-0.25557 0.12181,-0.48522 0.22488,-0.77085 0.39334,-1.84938 0.44513,-2.84987 l 0.0514,-0.99302 1.56553,-0.023 c 1.38369,-0.0203 1.57637,-0.0402 1.6589,-0.17116 0.068,-0.10799 0.068,-0.18834 -10e-6,-0.29633 -0.0828,-0.13131 -0.27781,-0.15079 -1.71407,-0.17116 l -1.62069,-0.023 v -0.30237 c 0,-0.45831 -0.31751,-1.91992 -0.55297,-2.54546 -0.11496,-0.30544 -0.20903,-0.56985 -0.20903,-0.58759 0,-0.0177 0.87358,-0.0323 1.94129,-0.0323 1.65192,0 1.96112,-0.0198 2.07433,-0.13304 0.0732,-0.0732 0.13305,-0.17986 0.13305,-0.23707 0,-0.28283 -0.18887,-0.30722 -2.37955,-0.30722 h -2.17636 l -0.23035,-0.39306 c -0.33532,-0.57218 -1.39006,-1.64092 -2.11189,-2.13992 -0.80568,-0.55697 -1.88786,-1.07432 -2.86705,-1.37063 l -0.7758,-0.23477 5.19778,-0.0263 c 4.84154,-0.0245 5.20419,-0.0365 5.29124,-0.17448 0.0682,-0.10806 0.0682,-0.18827 -1e-5,-0.29633 -0.0885,-0.14027 -1.08296,-0.1493 -18.65966,-0.16952 -13.65332,-0.0157 -18.59657,0.004 -18.68095,0.0739 -0.15161,0.12583 -0.14508,0.28605 0.0183,0.44945 0.11781,0.1178 0.68027,0.13304 4.91067,0.13304 2.62769,0 4.77762,0.0324 4.77762,0.0719 0,0.0616 -0.6796,3.33877 -0.80574,3.8855 l -0.0438,0.18974 -4.4132,0.0219 c -4.0384,0.0201 -4.42087,0.0341 -4.50352,0.16513 -0.0692,0.10978 -0.0535,0.18391 0.0674,0.3175 0.15525,0.17155 0.22485,0.17429 4.42027,0.17429 2.34441,0 4.26276,0.0286 4.26302,0.0635 2.6e-4,0.0349 -0.15931,0.81598 -0.3546,1.73567 l -0.35507,1.67217 H 97.7957 c -3.44622,0 -3.93095,0.0159 -4.04807,0.13305 -0.16709,0.16709 -0.16709,0.24414 0,0.41123 0.11705,0.11705 0.59575,0.13305 3.98095,0.13305 h 3.8479 l -0.045,0.1905 c -0.0247,0.10478 -0.21763,1.00965 -0.42868,2.01083 -0.21104,1.00119 -0.40511,1.90564 -0.43126,2.0099 l -0.0475,0.18955 -3.43203,0.0221 c -3.16238,0.0204 -3.43936,0.0337 -3.52545,0.17028 -0.0681,0.10805 -0.0681,0.18828 0,0.29633 0.086,0.13642 0.35949,0.14992 3.44973,0.17031 2.60351,0.0172 3.35513,0.0456 3.35108,0.127 -0.003,0.0577 -0.20452,1.03831 -0.4481,2.17919 l -0.44289,2.07433 -2.89939,0.0423 c -2.45331,0.0358 -2.91174,0.0619 -2.9796,0.16933 -0.1098,0.17386 -0.10345,0.22126 0.0502,0.37495 0.11548,0.11549 0.49553,0.13305 2.87866,0.13305 2.30568,0 2.74562,0.0191 2.74562,0.11933 0,0.10613 -0.5271,2.67749 -0.64808,3.16151 l -0.0476,0.1905 H 96.2855 c -2.30584,0 -2.3963,0.006 -2.54843,0.17428 -0.12089,0.13358 -0.13664,0.20775 -0.0674,0.3175 0.0807,0.12807 0.34228,0.14559 2.47294,0.1657 1.31046,0.0124 2.38265,0.0411 2.38265,0.0638 0,0.0227 -0.1905,0.94393 -0.42334,2.04716 -0.23283,1.10324 -0.42333,2.01752 -0.42333,2.03173 0,0.0142 -0.85453,0.0259 -1.89895,0.0259 -1.61343,0 -1.91896,0.02 -2.032,0.13304 -0.1671,0.1671 -0.1671,0.24414 0,0.41124 0.11271,0.11272 0.41171,0.13305 1.95651,0.13305 h 1.82347 l -0.045,0.1905 c -0.0248,0.10477 -0.18956,0.885 -0.3662,1.73383 l -0.32117,1.54332 -1.51768,0.023 c -1.30827,0.0198 -1.52994,0.0425 -1.60657,0.16408 -0.0645,0.1023 -0.0583,0.17791 0.0224,0.27516 0.10092,0.12161 1.84055,0.1341 18.6749,0.1341 16.83433,0 18.57396,-0.0125 18.67489,-0.1341 z m -20.81958,-17.69667 0.028,-0.24557 2.37067,-0.0194 c 1.54374,-0.0126 2.32263,0.009 2.23296,0.0618 -0.40906,0.24129 -1.20939,0.35156 -2.89598,0.39902 l -1.76369,0.0496 z m 0.23969,-1.08912 c 0,-0.0681 0.1905,-1.04485 0.42333,-2.17048 0.23283,-1.12564 0.42333,-2.06049 0.42333,-2.07745 0,-0.017 1.34998,-0.0308 2.99996,-0.0308 h 2.99996 l 0.0612,0.1905 c 0.10751,0.3348 0.0602,1.61196 -0.0799,2.15888 -0.16815,0.65615 -0.36678,1.05095 -0.81236,1.61465 l -0.34672,0.43864 h -2.83436 c -2.43132,0 -2.83436,-0.0176 -2.83436,-0.12389 z m 1.016,-4.99291 c 0,-0.0431 0.23181,-1.18258 0.30063,-1.47776 l 0.0471,-0.20222 1.37128,0.0486 c 1.85033,0.0656 2.70174,0.33049 3.36551,1.04701 0.63446,0.68488 0.86843,0.62115 -2.2802,0.62115 -1.5424,0 -2.80436,-0.0166 -2.80436,-0.0368 z m -28.99834,28.17523 c -1.52629,-0.24069 -3.03892,-1.10834 -3.85212,-2.20958 -0.85496,-1.1578 -1.29076,-2.76742 -1.11594,-4.12173 0.17563,-1.36056 0.72062,-2.52033 1.60892,-3.42386 0.59209,-0.60225 1.34413,-1.04927 2.30914,-1.37258 0.6462,-0.21649 0.85762,-0.24668 1.7276,-0.24668 1.14523,0 1.75493,0.12928 2.6244,0.55648 1.49554,0.73481 2.52554,2.01261 2.96778,3.68175 0.19291,0.72813 0.1962,2.06561 0.007,2.7891 -0.30875,1.17975 -1.05983,2.41674 -1.85082,3.04819 -0.5622,0.44881 -1.58083,0.96551 -2.23227,1.13233 -0.53773,0.1377 -1.77897,0.23196 -2.19356,0.16658 z m 0,-32.08867 c -2.05483,-0.32404 -3.78958,-1.62084 -4.52758,-3.38457 -0.82578,-1.97352 -0.55302,-4.165 0.73098,-5.8731 0.65991,-0.87786 1.50681,-1.45471 2.74456,-1.86939 0.64846,-0.21725 0.85903,-0.24737 1.72964,-0.24737 1.14523,0 1.75493,0.12928 2.6244,0.55648 1.95479,0.96046 3.10705,2.83703 3.11548,5.07385 0.005,1.35216 -0.40065,2.54217 -1.24916,3.66366 -0.62252,0.82279 -1.88397,1.63453 -2.97376,1.9136 -0.53856,0.13792 -1.77966,0.23227 -2.19456,0.16684 z"
       id="path847" />
    <path
       style="fill:#000000;stroke-width:0.0846667"
       d="m 105.25642,175.61887 c -21.673751,-0.0423 -23.148301,-0.0543 -23.664341,-0.19343 -2.45673,-0.66215 -4.14784,-1.99887 -5.12082,-4.04768 -0.51508,-1.08462 -0.64984,-1.67193 -0.69695,-3.03744 -0.0503,-1.4594 0.10478,-2.27932 0.65229,-3.44767 0.99971,-2.13334 2.6924,-3.49379 5.10659,-4.10429 0.91055,-0.23026 2.82625,-0.1834 3.73885,0.0915 1.24026,0.37354 2.25784,0.95941 3.15687,1.81757 l 0.52917,0.50511 V 152.0452 140.88785 l -0.58613,0.55293 c -0.96654,0.91178 -2.30516,1.6124 -3.58013,1.87379 -0.8397,0.17215 -2.46899,0.17348 -3.19974,0.003 -2.77028,-0.64778 -4.77968,-2.53168 -5.59783,-5.24819 -0.27832,-0.92411 -0.31942,-2.80558 -0.0829,-3.79655 0.67183,-2.81521 2.69794,-4.8333 5.58567,-5.56354 0.63298,-0.16007 1.16709,-0.16314 24.606891,-0.14153 l 23.95987,0.0221 0.56395,0.18232 c 2.6618,0.86052 4.43807,2.53049 5.16434,4.85525 l 0.19837,0.635 v 17.56833 c 0,16.62513 -0.008,17.59789 -0.15167,18.11867 -0.73304,2.65985 -2.54168,4.52576 -5.19891,5.36356 -0.60277,0.19005 -0.91756,0.24117 -2.05775,0.33418 -0.11642,0.009 -10.61296,-0.003 -23.32566,-0.0279 z m 24.58788,-1.87846 c 0.70572,-0.21963 1.863,-0.80211 2.37243,-1.19409 0.81984,-0.63082 1.59402,-1.87652 1.92992,-3.10534 0.14181,-0.5188 0.15043,-1.52774 0.15043,-17.61067 v -17.06033 l -0.19802,-0.635 c -0.56511,-1.8121 -1.93126,-3.06126 -4.03836,-3.69254 -0.47774,-0.14313 -1.62378,-0.15284 -21.26406,-0.1802 l -20.759111,-0.0289 0.51197,0.52323 c 0.99763,1.01954 1.68203,2.32561 1.97069,3.76076 0.12267,0.60986 0.13361,2.35354 0.11182,17.821 l -0.0242,17.14501 -0.18974,0.59266 c -0.42337,1.32237 -1.32246,2.82397 -2.09922,3.50598 l -0.28677,0.25179 0.31481,0.0336 c 0.17314,0.0185 9.47786,0.0296 20.677141,0.0246 18.83096,-0.008 20.39677,-0.0198 20.82022,-0.15157 z m -36.150781,-4.34886 c -0.0807,-0.0973 -0.0869,-0.17286 -0.0224,-0.27516 0.0766,-0.12161 0.2983,-0.14425 1.60657,-0.16408 l 1.51768,-0.023 0.32117,-1.54332 c 0.17664,-0.84883 0.34143,-1.62906 0.3662,-1.73383 l 0.045,-0.1905 h -1.82347 c -1.5448,0 -1.84379,-0.0203 -1.95651,-0.13305 -0.1671,-0.1671 -0.1671,-0.24414 0,-0.41124 0.11304,-0.11304 0.41857,-0.13304 2.032,-0.13304 1.04442,0 1.89895,-0.0163 1.89895,-0.0363 0,-0.0199 0.1905,-0.93333 0.42334,-2.02974 0.23283,-1.09642 0.42333,-2.01296 0.42333,-2.03676 0,-0.0238 -1.07219,-0.0534 -2.38265,-0.0658 -2.13066,-0.0201 -2.3922,-0.0376 -2.47294,-0.1657 -0.0692,-0.10975 -0.0534,-0.18392 0.0674,-0.3175 0.15216,-0.16813 0.24251,-0.17428 2.55761,-0.17428 1.31993,0 2.39987,-0.0146 2.39987,-0.0325 0,-0.0179 0.1524,-0.74619 0.33867,-1.61853 0.18627,-0.87235 0.33867,-1.63879 0.33867,-1.70321 0,-0.0973 -0.46434,-0.11713 -2.74562,-0.11713 -2.38313,0 -2.76319,-0.0176 -2.87867,-0.13305 -0.15369,-0.15369 -0.16004,-0.20109 -0.0503,-0.37495 0.0679,-0.10745 0.52597,-0.13351 2.97666,-0.16933 l 2.89646,-0.0423 0.450091,-2.11666 c 0.24755,-1.16417 0.45051,-2.14481 0.45104,-2.1792 5.1e-4,-0.0344 -1.509381,-0.0725 -3.355341,-0.0847 -3.09024,-0.0204 -3.36371,-0.0339 -3.44974,-0.17031 -0.0681,-0.10805 -0.0681,-0.18828 0,-0.29633 0.0861,-0.13653 0.36308,-0.14991 3.52546,-0.17028 l 3.432021,-0.0221 0.0473,-0.18955 c 0.026,-0.10426 0.22241,-1.02776 0.43643,-2.05223 0.21403,-1.02447 0.40889,-1.92934 0.43302,-2.01083 0.0413,-0.13959 -0.17928,-0.14817 -3.808111,-0.14817 -3.38892,0 -3.86799,-0.016 -3.98504,-0.13305 -0.1671,-0.16709 -0.1671,-0.24414 0,-0.41123 0.11712,-0.11712 0.60204,-0.13305 4.05024,-0.13305 h 3.917181 l 0.3236,-1.54517 c 0.17797,-0.84984 0.34101,-1.63089 0.3623,-1.73567 l 0.0387,-0.1905 h -4.272411 c -4.20538,0 -4.27489,-0.003 -4.43014,-0.17429 -0.12091,-0.13359 -0.13665,-0.20772 -0.0674,-0.3175 0.0827,-0.13104 0.46465,-0.14507 4.49595,-0.16512 l 4.405621,-0.0219 0.0476,-0.18975 c 0.0923,-0.36809 0.81705,-3.81454 0.81705,-3.8855 0,-0.0396 -2.14993,-0.0719 -4.777621,-0.0719 -4.2304,0 -4.79285,-0.0152 -4.91066,-0.13304 -0.1634,-0.1634 -0.16993,-0.32362 -0.0183,-0.44945 0.0844,-0.07 5.02763,-0.0896 18.680941,-0.0739 17.5767,0.0202 18.57118,0.0292 18.65966,0.16952 0.0682,0.10806 0.0682,0.18827 1e-5,0.29633 -0.0871,0.13802 -0.44951,0.14995 -5.29124,0.17419 l -5.19778,0.026 0.71967,0.20982 c 0.93896,0.27375 2.43927,1.01034 3.13266,1.53802 0.68057,0.51791 1.60412,1.48907 1.90608,2.00433 l 0.22668,0.3868 h 2.17636 c 2.19068,0 2.37955,0.0244 2.37955,0.30722 0,0.0572 -0.0599,0.16389 -0.13305,0.23707 -0.11321,0.11321 -0.42241,0.13304 -2.07433,0.13304 -1.06771,0 -1.94129,0.0145 -1.94129,0.0323 0,0.0177 0.0941,0.28215 0.20903,0.58759 0.23546,0.62554 0.55297,2.08715 0.55297,2.54546 v 0.30237 l 1.62069,0.023 c 1.43626,0.0204 1.63132,0.0399 1.71407,0.17116 0.0681,0.10799 0.0681,0.18834 10e-6,0.29633 -0.0826,0.13104 -0.27584,0.15083 -1.67174,0.1712 l -1.57836,0.023 -0.002,0.61196 c -0.002,0.79404 -0.19813,2.22125 -0.41538,3.02497 -0.0944,0.34925 -0.17254,0.66284 -0.17364,0.69688 -10e-4,0.034 0.84161,0.0721 1.87268,0.0847 1.67841,0.0204 1.88445,0.0383 1.96807,0.17096 0.0681,0.10801 0.0681,0.18832 -1e-5,0.29633 -0.084,0.1333 -0.29678,0.15044 -2.1206,0.1708 l -2.0272,0.0226 -0.29072,0.61236 c -0.47898,1.00894 -1.25128,2.087 -2.12116,2.96098 l -0.82075,0.8246 3.64348,0.0221 c 3.36382,0.0204 3.65064,0.0334 3.73691,0.17023 0.0681,0.10803 0.0681,0.1883 2e-5,0.29633 -0.0863,0.13686 -0.41253,0.1515 -4.27523,0.19188 l -4.18182,0.0437 -1.06665,0.55767 c -1.08275,0.56608 -2.48246,1.06931 -3.62903,1.30472 -1.79365,0.36826 -2.19159,0.39857 -5.77233,0.43955 l -3.52535,0.0404 -0.0559,0.35147 c -0.0307,0.1933 -0.0772,0.43719 -0.10333,0.54197 l -0.0475,0.1905 h 11.22146 c 10.08845,0 11.2349,0.0134 11.35452,0.13304 0.15909,0.15909 0.16943,0.3047 0.0314,0.44269 -0.078,0.078 -2.73191,0.1016 -11.43,0.1016 -6.23062,0 -11.3284,0.0153 -11.3284,0.0341 0,0.0479 -0.75834,3.6895 -0.81687,3.92272 l -0.048,0.19125 11.78971,0.0215 c 11.12279,0.0202 11.795,0.0298 11.88317,0.16963 0.0682,0.10807 0.0682,0.18826 0,0.29633 -0.0882,0.13979 -0.76397,0.14938 -11.95873,0.16963 -6.5259,0.0118 -11.86528,0.0529 -11.86528,0.0913 0,0.0384 -0.15222,0.79077 -0.33826,1.67188 -0.18604,0.88111 -0.33844,1.63046 -0.33867,1.66523 -2.5e-4,0.0348 5.49137,0.0729 12.20354,0.0847 11.28275,0.0198 12.21066,0.0321 12.29292,0.16253 0.0646,0.10237 0.0585,0.17785 -0.0223,0.27516 -0.10093,0.12161 -1.84056,0.1341 -18.67489,0.1341 -16.834341,0 -18.573971,-0.0125 -18.674891,-0.1341 z m 20.530241,-17.68989 c 1.00251,-0.26112 0.82325,-0.29153 -1.60134,-0.27172 l -2.37067,0.0194 -0.0271,0.1905 -0.0271,0.1905 h 1.7661 c 1.30678,0 1.89455,-0.0335 2.26002,-0.12865 z m 2.2551,-1.41065 c 0.44558,-0.5637 0.64421,-0.9585 0.81236,-1.61465 0.14016,-0.54692 0.18746,-1.82408 0.0799,-2.15888 l -0.0612,-0.1905 h -2.99996 c -1.64998,0 -2.99996,0.0163 -2.99996,0.0363 0,0.02 -0.1905,0.95613 -0.42333,2.08037 -0.23283,1.12423 -0.42333,2.0985 -0.42333,2.16503 0,0.10244 0.4342,0.12097 2.83436,0.12097 h 2.83436 z m 0.49766,-4.78953 c -0.83619,-1.10986 -1.67603,-1.44427 -3.82035,-1.52121 l -1.32891,-0.0477 -0.0472,0.20236 c -0.0688,0.29522 -0.30066,1.43479 -0.30066,1.4779 0,0.0202 1.26196,0.0368 2.80436,0.0368 2.65691,0 2.7985,-0.008 2.69274,-0.14817 z M 84.674639,173.6215 c 0.65144,-0.16682 1.67007,-0.68352 2.23227,-1.13233 0.79099,-0.63145 1.54207,-1.86844 1.85081,-3.04819 0.18935,-0.72349 0.18605,-2.06097 -0.007,-2.7891 -0.44223,-1.66914 -1.47223,-2.94694 -2.96777,-3.68175 -0.86947,-0.4272 -1.47917,-0.55648 -2.6244,-0.55648 -0.86998,0 -1.0814,0.0302 -1.7276,0.24668 -2.24754,0.753 -3.61166,2.42294 -3.91805,4.79644 -0.17482,1.35431 0.26097,2.96393 1.11594,4.12173 0.81319,1.10124 2.32582,1.96889 3.85211,2.20958 0.41459,0.0654 1.65583,-0.0289 2.19355,-0.16658 z m 0.001,-32.08893 c 1.08979,-0.27907 2.35123,-1.09081 2.97375,-1.9136 1.37345,-1.81531 1.6435,-4.10191 0.72208,-6.11409 -0.67036,-1.46392 -2.09655,-2.6381 -3.70129,-3.04726 -0.7927,-0.20211 -2.31782,-0.17886 -3.04802,0.0465 -2.42058,0.74697 -3.87942,2.53514 -4.13807,5.07223 -0.0734,0.72042 0.13583,1.94129 0.46941,2.73852 0.738,1.76373 2.47274,3.06053 4.52757,3.38457 0.41491,0.0654 1.656,-0.0289 2.19457,-0.16684 z"
       id="path863" />
  </g>
</svg>
